<svg id="base_version" data-name="base version" xmlns="http://www.w3.org/2000/svg" viewBox="0 0 580.43 87.58"><g id="icon"><path d="M217.93,253.85H138.56a7.83,7.83,0,0,0-7.83,7.82v49.7l43.92-13.73V286.56l43.28-13.34Z" transform="translate(-130.73 -253.85)" style="fill:#fad270"/><path d="M130.73,341.43H210.1a7.83,7.83,0,0,0,7.83-7.83V283.9l-43.28,13.72V308.7l-43.92,13.36Z" transform="translate(-130.73 -253.85)" style="fill:#fad270"/></g><g id="name"><path d="M255.18,310.43l5.42-7.91a17.41,17.41,0,0,0,12.11,5.37c2.43,0,4.79-1,4.79-3.12,0-1.5-1.38-2.48-3.46-3.29-2.54-1-6.12-1.9-9.23-3.46-3.87-2-7-5.25-7-11.07,0-7.5,6.52-13.15,15.87-13.15a23.75,23.75,0,0,1,15.17,5.36l-5,8.19a17.24,17.24,0,0,0-10-3.52c-3.12,0-4.56,1.33-4.56,2.77,0,1.79,1.85,2.6,3.4,3.17,2.25.87,5.77,2,8.66,3.23,4.5,1.91,8.13,5.08,8.13,11.2,0,7.78-6.46,13.61-16.9,13.61A22.81,22.81,0,0,1,255.18,310.43Z" transform="translate(-130.73 -253.85)" style="fill:#101820"/><path d="M347.24,297.62v19.44H337V299.64c0-4.21-2.42-6-5.31-6-3.34,0-5.94,2.25-5.94,6.34v17.08H315.63V299.64c0-3.87-2.37-6-5.48-6s-5.77,2.19-5.77,6.34v17.08H294.23V285.22h9.92v4.44c1.79-3.4,5.83-5.42,9.86-5.37,3.47.06,7,1.5,8.83,5.31,2.48-3.57,6.86-5.31,11.19-5.31C340.9,284.29,347.24,288.56,347.24,297.62Z" transform="translate(-130.73 -253.85)" style="fill:#101820"/><path d="M386.47,285.22v31.84h-9.58v-2.77a13.4,13.4,0,0,1-9.4,3.58c-9.23,0-15.58-7.44-15.58-16.85,0-9.57,6.58-16.61,15.58-16.61a13.24,13.24,0,0,1,9.4,3.69v-2.88Zm-9.7,15.86a7.36,7.36,0,0,0-7.38-7.38,7.44,7.44,0,0,0,0,14.88A7.38,7.38,0,0,0,376.77,301.08Z" transform="translate(-130.73 -253.85)" style="fill:#101820"/><path d="M390.73,312.44l4.56-6.86a15.11,15.11,0,0,0,9.52,4c1.84,0,3.4-.63,3.4-2,0-.63-.34-1.21-1.73-1.79-1.56-.57-6-1.9-7.9-2.77-3.75-1.73-5.94-4.44-5.94-8.65,0-6,5.13-10.09,13.15-10.09a17.91,17.91,0,0,1,11.88,4.15l-4.38,6.69a14.51,14.51,0,0,0-7.67-2.71c-1.68,0-2.89.75-2.89,1.79s.64,1.73,2.89,2.31a39.7,39.7,0,0,1,7.49,2.76c3.87,2,5.43,4.45,5.43,8.08,0,6.12-5.14,10.61-13.67,10.61A20.27,20.27,0,0,1,390.73,312.44Z" transform="translate(-130.73 -253.85)" style="fill:#101820"/><path d="M423.5,273.05h9.92v16.49c1.44-2.65,5.08-5.19,10-5.19,6.29,0,12.29,4.21,12.29,13.15v19.56H445.48V300.22c0-4.22-2.14-6.58-5.6-6.58-3.63,0-6.23,2.71-6.23,6.81v16.61H423.5Z" transform="translate(-130.73 -253.85)" style="fill:#101820"/><path d="M461.16,276.51a5.89,5.89,0,1,1,5.89,5.82A5.74,5.74,0,0,1,461.16,276.51Zm.81,40.55V285.22h10.21v31.84Z" transform="translate(-130.73 -253.85)" style="fill:#101820"/><path d="M478.35,285.22h9.93v4.44c1.44-2.77,5.07-5.31,10-5.31,6.28,0,12.28,4.21,12.28,13.15v19.56H500.33V300.22c0-4.22-2.13-6.58-5.59-6.58-3.64,0-6.23,2.71-6.23,6.86v16.56H478.35Z" transform="translate(-130.73 -253.85)" style="fill:#101820"/><path d="M549.54,285.22V314c0,10.33-7.91,16.56-18.12,16.56a26,26,0,0,1-15-4.79l3.69-7.44A20.56,20.56,0,0,0,531,322c6,0,8.82-3.34,8.82-7.32v-.7a12.4,12.4,0,0,1-8.88,3.18c-9.57,0-15.75-6.81-15.75-16.27,0-9.92,7.1-16.44,16.21-16.44a12.61,12.61,0,0,1,8.94,3.46v-2.65ZM539.9,301a7.21,7.21,0,1,0-14.42,0,7.21,7.21,0,1,0,14.42,0Z" transform="translate(-130.73 -253.85)" style="fill:#101820"/><path d="M570.56,273.15h5.9V311h23.42v5.73H570.56Z" transform="translate(-130.73 -253.85)" style="fill:#101820"/><path d="M602.48,300.89a16.61,16.61,0,1,1,16.64,16.64A16.28,16.28,0,0,1,602.48,300.89Zm27.55,0a10.93,10.93,0,1,0-10.91,11.44A11.13,11.13,0,0,0,630,300.89Z" transform="translate(-130.73 -253.85)" style="fill:#101820"/><path d="M672.81,285.13v28.38c0,10.33-6.73,16.7-16.94,16.7a24.26,24.26,0,0,1-14-4.48l2.65-4.49a19.86,19.86,0,0,0,11.27,3.84c7.08,0,11.39-4.49,11.39-10.62v-2.6a14.12,14.12,0,0,1-11.09,5c-9.09,0-15.87-7-15.87-16.29a15.9,15.9,0,0,1,16.16-16.17,13.93,13.93,0,0,1,10.8,4.9v-4.13Zm-5.25,15.46c0-6.37-4.61-11.09-10.8-11.09S646,294.22,646,300.59s4.54,11.15,10.8,11.15S667.56,307,667.56,300.59Z" transform="translate(-130.73 -253.85)" style="fill:#101820"/><path d="M677.94,300.89a16.61,16.61,0,1,1,16.64,16.64A16.28,16.28,0,0,1,677.94,300.89Zm27.55,0a10.93,10.93,0,1,0-10.91,11.44A11.13,11.13,0,0,0,705.49,300.89Z" transform="translate(-130.73 -253.85)" style="fill:#101820"/></g></svg>